<svg xmlns="http://www.w3.org/2000/svg" version="1.1" xmlns:xlink="http://www.w3.org/1999/xlink" xmlns:svgjs="http://svgjs.dev/svgjs" width="1440" height="560" preserveAspectRatio="none" viewBox="0 0 1440 560"><g clip-path="url(&quot;#SvgjsClipPath1211&quot;)" fill="none"><path d="M39.13 42.46Q47.9 44.55 56.67 46.65 65.44 48.7 74.22 50.76 82.99 52.76 91.76 54.77 100.53 56.71 109.3 58.65" stroke="rgba(255, 214, 191, 1)" stroke-width="4"></path><path d="M134.93 64.04Q143.3 65.7 151.67 67.35 160.04 68.92 168.41 70.49 176.78 71.95 185.15 73.42 193.51 74.78 201.88 76.13 210.25 77.38 218.62 78.62 226.99 79.74 235.36 80.86" stroke="rgba(255, 247, 173, 1)" stroke-width="4"></path><path d="M260.2 83.72Q262.26 83.92 264.31 84.13 266.37 84.33 268.43 84.53 270.48 84.72 272.54 84.91" stroke="rgba(255, 169, 249, 1)" stroke-width="4"></path><path d="M306.83 87.44Q315.33 87.84 323.83 88.25 332.33 88.5 340.83 88.75 349.33 88.84 357.84 88.94 366.34 88.88 374.84 88.82 383.34 88.61 391.84 88.4" stroke="rgba(255, 214, 191, 1)" stroke-width="4"></path><path d="M426.38 86.61Q430.53 86.3 434.68 85.99 438.83 85.65 442.98 85.31 447.13 84.93 451.28 84.56" stroke="rgba(255, 214, 191, 1)" stroke-width="4"></path><path d="M461.95 83.49Q470.36 82.54 478.77 81.59 487.17 80.51 495.58 79.42 503.99 78.22 512.4 77.01 520.81 75.68 529.22 74.36 537.62 72.92 546.03 71.48 554.44 69.94 562.85 68.4 571.26 66.77 579.66 65.13 588.07 63.41 596.48 61.68" stroke="rgba(255, 247, 173, 1)" stroke-width="4"></path><path d="M612.06 58.35Q614.02 57.92 615.99 57.49 617.95 57.06 619.91 56.63 621.88 56.19 623.84 55.75" stroke="rgba(255, 214, 191, 1)" stroke-width="4"></path><path d="M648.56 50.12Q656.55 48.24 664.53 46.36 672.52 44.45 680.51 42.54 688.49 40.61 696.48 38.68 704.47 36.73 712.45 34.78 720.44 32.83 728.43 30.88 736.41 28.94 744.4 26.99" stroke="rgba(255, 169, 249, 1)" stroke-width="4"></path><path d="M783.05 17.73Q790.61 15.97 798.17 14.21 805.72 12.49 813.28 10.77 820.84 9.1 828.4 7.43 835.95 5.82 843.51 4.2 851.07 2.65 858.63 1.1 866.18-0.39 873.74-1.87 881.3-3.28 888.86-4.69 896.42-6.01 903.97-7.34 911.53-8.58 919.09-9.81 926.65-10.96 934.2-12.1 941.76-13.15 949.32-14.2 956.88-15.14 964.43-16.09 971.99-16.93 979.55-17.77" stroke="rgba(255, 247, 173, 1)" stroke-width="4"></path><path d="M992.37-19.01Q999.91-19.65 1007.45-20.28 1014.98-20.79 1022.52-21.31 1030.06-21.7 1037.6-22.1 1045.13-22.38 1052.67-22.66 1060.21-22.82 1067.75-22.98 1075.28-23.02 1082.82-23.05" stroke="rgba(255, 214, 191, 1)" stroke-width="4"></path><path d="M1116.74-22.34Q1124.52-21.97 1132.3-21.61 1140.08-21.11 1147.87-20.62 1155.65-20.01 1163.43-19.39 1171.21-18.65 1178.99-17.92" stroke="rgba(255, 247, 173, 1)" stroke-width="4"></path><path d="M1203.98-15.06Q1208.5-14.48 1213.02-13.89 1217.54-13.27 1222.05-12.64 1226.57-11.98 1231.09-11.32" stroke="rgba(255, 247, 173, 1)" stroke-width="4"></path><path d="M1261.22-6.45Q1269.2-5.01 1277.19-3.58 1285.17-2.06 1293.15-0.54 1301.14 1.07 1309.12 2.67 1317.1 4.35 1325.08 6.02 1333.07 7.77 1341.05 9.51" stroke="rgba(255, 247, 173, 1)" stroke-width="4"></path><path d="M1356.3 12.94Q1365.08 14.97 1373.85 17 1382.63 19.08 1391.41 21.16 1400.18 23.27 1408.96 25.38" stroke="rgba(255, 247, 173, 1)" stroke-width="4"></path><path d="M21.73 71.18Q31.61 73.57 41.49 75.96 51.37 78.32 61.25 80.67 71.13 82.97 81.01 85.27" stroke="rgba(255, 214, 191, 1)" stroke-width="4"></path><path d="M97.56 89.01Q101.09 89.79 104.61 90.57 108.14 91.33 111.66 92.1 115.19 92.85 118.71 93.61" stroke="rgba(255, 214, 191, 1)" stroke-width="4"></path><path d="M144.62 98.92Q152.39 100.41 160.15 101.91 167.92 103.32 175.69 104.73 183.46 106.05 191.22 107.37 198.99 108.6 206.76 109.82 214.52 110.95 222.29 112.07 230.06 113.09 237.82 114.11 245.59 115.02 253.36 115.93 261.13 116.72 268.89 117.52 276.66 118.19 284.43 118.87 292.19 119.42 299.96 119.97 307.73 120.4 315.5 120.83 323.26 121.13 331.03 121.44" stroke="rgba(255, 247, 173, 1)" stroke-width="4"></path><path d="M343.17 121.73Q351.7 121.81 360.23 121.88 368.76 121.8 377.29 121.72 385.82 121.49 394.35 121.25 402.88 120.87 411.41 120.48 419.94 119.94 428.47 119.4 437 118.71 445.53 118.03" stroke="rgba(255, 214, 191, 1)" stroke-width="4"></path><path d="M469.29 115.63Q476.81 114.74 484.34 113.84 491.86 112.84 499.38 111.84 506.91 110.74 514.43 109.64" stroke="rgba(255, 214, 191, 1)" stroke-width="4"></path><path d="M533.41 106.6Q542.36 105.04 551.31 103.48 560.26 101.8 569.21 100.13 578.16 98.35 587.11 96.56" stroke="rgba(255, 169, 249, 1)" stroke-width="4"></path><path d="M620.77 89.38Q624.66 88.51 628.54 87.64 632.43 86.76 636.32 85.88 640.2 84.99 644.09 84.09" stroke="rgba(255, 247, 173, 1)" stroke-width="4"></path><path d="M664.46 79.32Q672.53 77.39 680.61 75.46 688.68 73.51 696.75 71.55 704.83 69.58 712.9 67.62 720.97 65.64 729.05 63.67 737.12 61.71 745.19 59.74 753.27 57.79 761.34 55.84 769.41 53.91 777.49 51.98 785.56 50.09 793.63 48.2 801.71 46.35 809.78 44.5" stroke="rgba(255, 247, 173, 1)" stroke-width="4"></path><path d="M846.47 36.52Q853.97 35 861.48 33.47 868.98 32.01 876.49 30.55 883.99 29.16 891.5 27.78 899 26.48 906.51 25.18 914.01 23.96 921.52 22.75 929.02 21.62 936.52 20.5 944.03 19.48 951.53 18.45 959.04 17.53 966.54 16.61 974.05 15.79 981.55 14.97 989.06 14.26 996.56 13.55" stroke="rgba(255, 214, 191, 1)" stroke-width="4"></path><path d="M1023.96 11.55Q1031.77 11.15 1039.57 10.75 1047.38 10.48 1055.18 10.21 1062.99 10.07 1070.79 9.93 1078.6 9.92 1086.41 9.9 1094.21 10.02 1102.02 10.14 1109.82 10.39 1117.63 10.64 1125.43 11.01 1133.24 11.39" stroke="rgba(255, 169, 249, 1)" stroke-width="4"></path><path d="M1150.68 12.52Q1158.51 13.17 1166.35 13.81 1174.18 14.57 1182.02 15.34 1189.85 16.22 1197.69 17.1 1205.52 18.1 1213.36 19.1 1221.19 20.2 1229.02 21.31 1236.86 22.52 1244.69 23.73 1252.53 25.04 1260.36 26.35 1268.2 27.75 1276.03 29.15" stroke="rgba(255, 214, 191, 1)" stroke-width="4"></path><path d="M1312.98 36.41Q1318.75 37.63 1324.53 38.85 1330.3 40.1 1336.07 41.35 1341.85 42.63 1347.62 43.92 1353.4 45.23 1359.17 46.54 1364.94 47.87 1370.72 49.21 1376.49 50.57 1382.26 51.92 1388.04 53.3 1393.81 54.67 1399.58 56.06 1405.36 57.45 1411.13 58.85 1416.91 60.25 1422.68 61.66 1428.45 63.06 1434.23 64.47 1440 65.88" stroke="rgba(255, 247, 173, 1)" stroke-width="4"></path><path d="M24.74 104.86Q32.38 106.7 40.01 108.55 47.65 110.38 55.29 112.2 62.92 114 70.56 115.79 78.2 117.55 85.83 119.31 93.47 121.02 101.11 122.73 108.74 124.39 116.38 126.05" stroke="rgba(255, 247, 173, 1)" stroke-width="4"></path><path d="M143.7 131.68Q146.25 132.18 148.8 132.68 151.35 133.17 153.9 133.67 156.45 134.15 159 134.63" stroke="rgba(255, 214, 191, 1)" stroke-width="4"></path><path d="M173.96 137.36Q181.6 138.67 189.23 139.98 196.87 141.2 204.51 142.42 212.14 143.54 219.78 144.67 227.42 145.69 235.05 146.71 242.69 147.62 250.33 148.53 257.96 149.34 265.6 150.14 273.24 150.83 280.87 151.52 288.51 152.09 296.15 152.66 303.78 153.12 311.42 153.57 319.06 153.9 326.69 154.23 334.33 154.44 341.97 154.65 349.6 154.73 357.24 154.82" stroke="rgba(255, 214, 191, 1)" stroke-width="4"></path><path d="M369.82 154.77Q377.54 154.63 385.26 154.48 392.98 154.21 400.71 153.94 408.43 153.55 416.15 153.15 423.87 152.63 431.59 152.11 439.31 151.47 447.03 150.83 454.76 150.08 462.48 149.32 470.2 148.45 477.92 147.57" stroke="rgba(255, 169, 249, 1)" stroke-width="4"></path><path d="M494.49 145.45Q502.05 144.38 509.61 143.31 517.17 142.14 524.73 140.97 532.29 139.71 539.85 138.45 547.41 137.1 554.97 135.75 562.53 134.33 570.09 132.9 577.65 131.4 585.21 129.89 592.76 128.32 600.32 126.75 607.88 125.12 615.44 123.49 623 121.81 630.56 120.13 638.12 118.4 645.68 116.67 653.24 114.9 660.8 113.13 668.36 111.33 675.92 109.53 683.48 107.7 691.04 105.88" stroke="rgba(255, 169, 249, 1)" stroke-width="4"></path><path d="M712.45 100.67Q720.47 98.71 728.48 96.75 736.5 94.8 744.52 92.84 752.54 90.91 760.55 88.97 768.57 87.05 776.59 85.14 784.6 83.26 792.62 81.37 800.64 79.54 808.65 77.7 816.67 75.91 824.69 74.12 832.71 72.4 840.72 70.67 848.74 69.01 856.76 67.36 864.77 65.77 872.79 64.19 880.81 62.7 888.83 61.2 896.84 59.8 904.86 58.39" stroke="rgba(255, 214, 191, 1)" stroke-width="4"></path><path d="M928.88 54.56Q932.06 54.1 935.24 53.63 938.42 53.18 941.6 52.73 944.78 52.3 947.96 51.86" stroke="rgba(255, 169, 249, 1)" stroke-width="4"></path><path d="M971.84 48.94Q979.38 48.16 986.92 47.38 994.47 46.71 1002.01 46.03 1009.55 45.48 1017.09 44.92 1024.64 44.48 1032.18 44.04" stroke="rgba(255, 169, 249, 1)" stroke-width="4"></path><path d="M1051.65 43.25Q1054.5 43.17 1057.36 43.1 1060.21 43.04 1063.06 42.98 1065.92 42.93 1068.77 42.89" stroke="rgba(255, 214, 191, 1)" stroke-width="4"></path><path d="M1107.75 43.23Q1115.9 43.54 1124.04 43.85 1132.19 44.3 1140.34 44.75 1148.48 45.34 1156.63 45.92 1164.78 46.64 1172.93 47.36 1181.07 48.21 1189.22 49.06" stroke="rgba(255, 169, 249, 1)" stroke-width="4"></path><path d="M1202.66 50.65Q1210.56 51.69 1218.45 52.74 1226.35 53.89 1234.25 55.04 1242.14 56.29 1250.04 57.54 1257.94 58.89 1265.83 60.25 1273.73 61.69 1281.63 63.13 1289.52 64.66 1297.42 66.19 1305.32 67.79 1313.21 69.4 1321.11 71.08 1329.01 72.75 1336.9 74.49 1344.8 76.22 1352.7 78.02 1360.59 79.81 1368.49 81.64 1376.39 83.48 1384.28 85.35 1392.18 87.22" stroke="rgba(255, 214, 191, 1)" stroke-width="4"></path><path d="M1414.1 92.51Q1415.54 92.86 1416.98 93.21 1418.42 93.56 1419.86 93.91 1421.29 94.26 1422.73 94.61 1424.17 94.96 1425.61 95.31 1427.05 95.66 1428.49 96.01 1429.93 96.36 1431.37 96.71 1432.81 97.07 1434.24 97.42 1435.68 97.77 1437.12 98.12 1438.56 98.47 1440 98.82" stroke="rgba(255, 169, 249, 1)" stroke-width="4"></path><path d="M12.88 134.91Q20.75 136.83 28.63 138.74 36.5 140.64 44.38 142.54 52.25 144.41 60.12 146.29 68 148.13 75.87 149.97 83.74 151.76 91.62 153.56 99.49 155.31 107.37 157.05 115.24 158.74 123.11 160.42 130.99 162.04 138.86 163.66 146.74 165.2 154.61 166.74" stroke="rgba(255, 214, 191, 1)" stroke-width="4"></path><path d="M175.79 170.63Q183.11 171.88 190.42 173.12 197.74 174.28 205.06 175.45 212.37 176.52 219.69 177.59" stroke="rgba(255, 247, 173, 1)" stroke-width="4"></path><path d="M251.34 181.59Q259.66 182.45 267.98 183.31 276.3 184.04 284.62 184.76 292.94 185.35 301.26 185.94 309.58 186.38 317.9 186.82 326.22 187.12 334.54 187.42 342.86 187.57 351.18 187.72" stroke="rgba(255, 214, 191, 1)" stroke-width="4"></path><path d="M364.36 187.75Q372.73 187.64 381.1 187.53 389.47 187.27 397.84 187 406.21 186.59 414.58 186.18 422.95 185.63 431.32 185.07 439.69 184.38 448.06 183.68 456.43 182.85 464.8 182.01 473.17 181.04 481.54 180.07 489.91 178.97 498.28 177.88" stroke="rgba(255, 169, 249, 1)" stroke-width="4"></path><path d="M511 176.04Q518.04 174.95 525.08 173.86 532.12 172.68 539.15 171.51 546.19 170.26 553.23 169.01" stroke="rgba(255, 169, 249, 1)" stroke-width="4"></path><path d="M579.37 164.01Q587.52 162.34 595.67 160.68 603.82 158.93 611.97 157.19 620.12 155.39 628.28 153.58 636.43 151.72 644.58 149.86 652.73 147.96 660.88 146.05 669.03 144.11 677.18 142.17" stroke="rgba(255, 169, 249, 1)" stroke-width="4"></path><path d="M690.62 138.92Q698.19 137.08 705.77 135.24 713.34 133.39 720.92 131.54 728.49 129.69 736.07 127.84 743.64 126 751.22 124.16 758.79 122.34 766.37 120.51 773.94 118.71 781.51 116.91 789.09 115.15 796.66 113.38 804.24 111.65 811.81 109.93 819.39 108.25 826.96 106.57 834.54 104.94 842.11 103.32 849.69 101.76 857.26 100.2" stroke="rgba(255, 247, 173, 1)" stroke-width="4"></path><path d="M867.53 98.15Q875.14 96.71 882.74 95.26 890.35 93.89 897.96 92.52 905.57 91.24 913.17 89.96 920.78 88.77 928.39 87.58 935.99 86.49 943.6 85.39 951.21 84.4 958.82 83.41 966.42 82.53 974.03 81.65" stroke="rgba(255, 214, 191, 1)" stroke-width="4"></path><path d="M1008.12 78.5Q1015.72 77.98 1023.31 77.47 1030.91 77.07 1038.5 76.68 1046.1 76.41 1053.7 76.13 1061.29 75.98 1068.89 75.83 1076.48 75.8 1084.08 75.77 1091.67 75.87 1099.27 75.96 1106.87 76.18 1114.46 76.4 1122.06 76.74 1129.65 77.07 1137.25 77.53 1144.85 77.99 1152.44 78.57 1160.04 79.14 1167.63 79.84 1175.23 80.53 1182.82 81.33 1190.42 82.14" stroke="rgba(255, 247, 173, 1)" stroke-width="4"></path><path d="M1210.18 84.56Q1218.46 85.71 1226.74 86.86 1235.03 88.12 1243.31 89.39 1251.59 90.77 1259.87 92.14 1268.15 93.63 1276.43 95.11 1284.72 96.68 1293 98.26 1301.28 99.92 1309.56 101.59 1317.84 103.33 1326.13 105.07 1334.41 106.88 1342.69 108.7" stroke="rgba(255, 169, 249, 1)" stroke-width="4"></path><path d="M1364.44 113.63Q1374.19 115.92 1383.94 118.2 1393.69 120.54 1403.44 122.87 1413.19 125.23 1422.94 127.6" stroke="rgba(255, 169, 249, 1)" stroke-width="4"></path><path d="M19.77 169.53Q24.51 170.68 29.25 171.83 33.99 172.98 38.73 174.12 43.47 175.26 48.21 176.4" stroke="rgba(255, 247, 173, 1)" stroke-width="4"></path><path d="M58.72 178.9Q66.55 180.73 74.37 182.56 82.2 184.35 90.03 186.14 97.86 187.88 105.68 189.62 113.51 191.31 121.34 192.99 129.16 194.6 136.99 196.22 144.82 197.76 152.65 199.31 160.47 200.77 168.3 202.23" stroke="rgba(255, 247, 173, 1)" stroke-width="4"></path><path d="M201.55 207.85Q207.82 208.79 214.1 209.74 220.37 210.61 226.64 211.49 232.92 212.3 239.19 213.1" stroke="rgba(255, 247, 173, 1)" stroke-width="4"></path><path d="M257.32 215.18Q265.34 215.97 273.36 216.75 281.37 217.41 289.39 218.07 297.41 218.6 305.43 219.13 313.45 219.52 321.46 219.92 329.48 220.18 337.5 220.44 345.52 220.56 353.54 220.68 361.55 220.67 369.57 220.66 377.59 220.51 385.61 220.36 393.63 220.07 401.64 219.78 409.66 219.36 417.68 218.94" stroke="rgba(255, 214, 191, 1)" stroke-width="4"></path><path d="M443.04 217.07Q445.13 216.88 447.21 216.7 449.3 216.51 451.39 216.31 453.47 216.11 455.56 215.91" stroke="rgba(255, 169, 249, 1)" stroke-width="4"></path><path d="M472.61 214.08Q480.56 213.11 488.51 212.13 496.46 211.04 504.4 209.95 512.35 208.75 520.3 207.56 528.25 206.26 536.2 204.96 544.15 203.56 552.1 202.16 560.04 200.67 567.99 199.18 575.94 197.61 583.89 196.04" stroke="rgba(255, 214, 191, 1)" stroke-width="4"></path><path d="M593.96 193.97Q601.78 192.31 609.6 190.65 617.41 188.93 625.23 187.21 633.05 185.43 640.87 183.66" stroke="rgba(255, 247, 173, 1)" stroke-width="4"></path><path d="M658.7 179.51Q667.21 177.48 675.73 175.46 684.24 173.4 692.76 171.35 701.27 169.27 709.78 167.2 718.3 165.12 726.81 163.04" stroke="rgba(255, 247, 173, 1)" stroke-width="4"></path><path d="M752.76 156.73Q760.39 154.89 768.02 153.06 775.64 151.25 783.27 149.44 790.9 147.67 798.53 145.89 806.15 144.16 813.78 142.43" stroke="rgba(255, 214, 191, 1)" stroke-width="4"></path><path d="M840.81 136.53Q849.34 134.77 857.86 133.02 866.38 131.34 874.91 129.67 883.44 128.1 891.96 126.52" stroke="rgba(255, 247, 173, 1)" stroke-width="4"></path><path d="M913.39 122.86Q914.57 122.67 915.75 122.48 916.92 122.29 918.1 122.11 919.28 121.92 920.46 121.74" stroke="rgba(255, 247, 173, 1)" stroke-width="4"></path><path d="M945.62 118.06Q954.04 116.99 962.46 115.91 970.87 114.97 979.29 114.03 987.71 113.22 996.13 112.41 1004.54 111.75 1012.96 111.08" stroke="rgba(255, 247, 173, 1)" stroke-width="4"></path><path d="M1028.64 110.11Q1036.75 109.73 1044.86 109.36 1052.97 109.13 1061.07 108.9 1069.18 108.8 1077.29 108.71 1085.4 108.76 1093.51 108.8 1101.62 108.99 1109.73 109.18 1117.83 109.5 1125.94 109.83 1134.05 110.29 1142.16 110.75" stroke="rgba(255, 247, 173, 1)" stroke-width="4"></path><path d="M1178.85 113.83Q1186.72 114.7 1194.59 115.56 1202.46 116.54 1210.33 117.52 1218.2 118.61 1226.07 119.7 1233.94 120.9 1241.8 122.09 1249.67 123.39 1257.54 124.69 1265.41 126.08 1273.28 127.47 1281.15 128.95 1289.02 130.43" stroke="rgba(255, 247, 173, 1)" stroke-width="4"></path><path d="M1315.29 135.72Q1323.08 137.38 1330.88 139.04 1338.67 140.76 1346.47 142.48 1354.26 144.25 1362.06 146.03 1369.85 147.84 1377.64 149.66 1385.44 151.51 1393.23 153.36 1401.03 155.23 1408.82 157.11 1416.62 159.01 1424.41 160.9 1432.21 162.8 1440 164.71" stroke="rgba(255, 247, 173, 1)" stroke-width="4"></path><path d="M43.94 208.32Q51.6 210.14 59.25 211.96 66.91 213.76 74.57 215.55 82.23 217.3 89.88 219.05 97.54 220.75 105.2 222.46 112.85 224.11 120.51 225.76 128.17 227.34 135.83 228.93 143.48 230.44 151.14 231.96" stroke="rgba(255, 247, 173, 1)" stroke-width="4"></path><path d="M175.45 236.45Q178.32 236.95 181.19 237.45 184.06 237.94 186.94 238.43 189.81 238.9 192.68 239.37" stroke="rgba(255, 214, 191, 1)" stroke-width="4"></path><path d="M218.67 243.33Q222.9 243.91 227.14 244.5 231.37 245.05 235.6 245.6 239.84 246.12 244.07 246.63" stroke="rgba(255, 214, 191, 1)" stroke-width="4"></path><path d="M274.63 249.81Q283.95 250.55 293.26 251.29 302.58 251.85 311.9 252.42 321.21 252.8 330.53 253.18" stroke="rgba(255, 214, 191, 1)" stroke-width="4"></path><path d="M365.9 253.63Q373.61 253.52 381.32 253.4 389.03 253.17 396.74 252.93 404.45 252.57 412.16 252.2" stroke="rgba(255, 169, 249, 1)" stroke-width="4"></path><path d="M433.96 250.76Q441.69 250.1 449.42 249.44 457.16 248.66 464.89 247.88 472.62 246.99 480.35 246.1 488.08 245.1 495.82 244.1 503.55 242.99 511.28 241.88 519.01 240.68 526.75 239.47 534.48 238.16 542.21 236.86 549.94 235.47 557.67 234.08 565.41 232.6 573.14 231.13 580.87 229.57 588.6 228.02 596.33 226.4 604.07 224.78 611.8 223.1 619.53 221.42" stroke="rgba(255, 169, 249, 1)" stroke-width="4"></path><path d="M652.46 213.91Q656.68 212.92 660.9 211.93 665.12 210.93 669.34 209.93 673.56 208.92 677.78 207.91" stroke="rgba(255, 214, 191, 1)" stroke-width="4"></path><path d="M698.14 202.98Q706.12 201.03 714.1 199.09 722.08 197.14 730.06 195.19 738.04 193.25 746.02 191.3 754 189.37 761.98 187.45 769.96 185.54 777.94 183.64 785.92 181.77 793.9 179.9 801.88 178.07 809.86 176.25 817.84 174.47 825.82 172.7 833.8 170.99 841.78 169.27 849.76 167.63 857.74 165.98" stroke="rgba(255, 214, 191, 1)" stroke-width="4"></path><path d="M874 162.79Q881.61 161.37 889.21 159.96 896.82 158.62 904.42 157.29 912.02 156.05 919.63 154.81 927.24 153.66 934.84 152.51 942.44 151.46 950.05 150.41 957.65 149.47 965.26 148.52 972.87 147.68 980.47 146.85 988.08 146.12 995.68 145.39 1003.28 144.78 1010.89 144.17 1018.49 143.68 1026.1 143.19 1033.7 142.82 1041.31 142.44 1048.91 142.19 1056.52 141.94" stroke="rgba(255, 169, 249, 1)" stroke-width="4"></path><path d="M1078.19 141.65Q1085.7 141.69 1093.22 141.74 1100.73 141.91 1108.25 142.07 1115.76 142.36 1123.28 142.64 1130.79 143.05 1138.3 143.45 1145.82 143.97 1153.33 144.49 1160.85 145.12 1168.36 145.76 1175.87 146.5 1183.39 147.25 1190.9 148.1 1198.42 148.96 1205.93 149.92 1213.44 150.87 1220.96 151.93 1228.47 152.99 1235.99 154.15 1243.5 155.3 1251.02 156.55 1258.53 157.8" stroke="rgba(255, 169, 249, 1)" stroke-width="4"></path><path d="M1289.16 163.39Q1291.91 163.93 1294.67 164.47 1297.43 165.02 1300.18 165.56 1302.93 166.12 1305.69 166.68" stroke="rgba(255, 214, 191, 1)" stroke-width="4"></path><path d="M1334.77 172.83Q1340.15 174.02 1345.52 175.21 1350.9 176.43 1356.28 177.64 1361.65 178.88 1367.03 180.12" stroke="rgba(255, 247, 173, 1)" stroke-width="4"></path><path d="M1389.94 185.51Q1394.95 186.71 1399.95 187.91 1404.96 189.12 1409.96 190.33 1414.97 191.54 1419.98 192.76 1424.98 193.98 1429.99 195.2 1434.99 196.42 1440 197.65" stroke="rgba(255, 169, 249, 1)" stroke-width="4"></path><path d="M23.32 236.28Q31.7 238.3 40.08 240.33 48.45 242.33 56.83 244.33 65.21 246.3 73.59 248.26 81.96 250.18 90.34 252.1 98.72 253.95 107.09 255.81 115.47 257.61 123.85 259.4 132.23 261.11 140.6 262.83 148.98 264.46 157.36 266.09" stroke="rgba(255, 169, 249, 1)" stroke-width="4"></path><path d="M179.38 270.08Q187.2 271.39 195.03 272.7 202.85 273.91 210.67 275.12 218.5 276.22 226.32 277.33 234.14 278.33 241.97 279.32 249.79 280.21 257.61 281.09 265.43 281.86 273.26 282.62 281.08 283.27 288.9 283.92 296.73 284.44 304.55 284.96" stroke="rgba(255, 169, 249, 1)" stroke-width="4"></path><path d="M331.56 286.16Q339.57 286.33 347.57 286.51 355.58 286.54 363.59 286.58 371.59 286.48 379.6 286.38 387.6 286.15 395.61 285.91 403.62 285.54 411.62 285.17 419.63 284.67 427.64 284.17 435.64 283.53 443.65 282.9 451.66 282.14 459.66 281.38 467.67 280.49 475.67 279.61 483.68 278.6 491.69 277.6 499.69 276.48 507.7 275.36" stroke="rgba(255, 247, 173, 1)" stroke-width="4"></path><path d="M532.37 271.48Q540.8 270.02 549.24 268.56 557.67 266.99 566.1 265.43 574.54 263.77 582.97 262.11 591.4 260.37 599.84 258.62 608.27 256.8 616.7 254.98 625.14 253.1 633.57 251.21" stroke="rgba(255, 247, 173, 1)" stroke-width="4"></path><path d="M643.84 248.86Q647.01 248.12 650.17 247.39 653.34 246.65 656.51 245.9 659.67 245.16 662.84 244.41" stroke="rgba(255, 169, 249, 1)" stroke-width="4"></path><path d="M689.1 238.12Q696.65 236.28 704.21 234.44 711.76 232.6 719.32 230.76 726.87 228.91 734.42 227.07 741.98 225.23 749.53 223.39" stroke="rgba(255, 169, 249, 1)" stroke-width="4"></path><path d="M774.83 217.32Q782.5 215.51 790.16 213.71 797.83 211.95 805.49 210.18 813.16 208.46 820.83 206.74 828.49 205.07 836.16 203.4 843.83 201.8 851.49 200.19 859.16 198.65 866.82 197.12 874.49 195.65 882.16 194.19 889.82 192.81 897.49 191.43 905.15 190.13 912.82 188.84 920.49 187.64 928.15 186.44 935.82 185.33 943.49 184.23 951.15 183.23 958.82 182.24 966.48 181.35 974.15 180.46" stroke="rgba(255, 214, 191, 1)" stroke-width="4"></path><path d="M986.47 179.19Q995.38 178.4 1004.29 177.62 1013.2 176.99 1022.11 176.37 1031.01 175.9 1039.92 175.44 1048.83 175.15 1057.74 174.85" stroke="rgba(255, 169, 249, 1)" stroke-width="4"></path><path d="M1070.92 174.63Q1080.18 174.63 1089.43 174.64 1098.69 174.82 1107.95 175 1117.2 175.37 1126.46 175.73 1135.71 176.28 1144.97 176.82" stroke="rgba(255, 169, 249, 1)" stroke-width="4"></path><path d="M1170.24 178.87Q1174.23 179.26 1178.23 179.65 1182.22 180.07 1186.21 180.5 1190.21 180.95 1194.2 181.4" stroke="rgba(255, 247, 173, 1)" stroke-width="4"></path><path d="M1222.7 185.1Q1230.43 186.25 1238.16 187.4 1245.89 188.65 1253.63 189.9 1261.36 191.25 1269.09 192.59 1276.82 194.02 1284.55 195.45 1292.28 196.96 1300.02 198.47 1307.75 200.05 1315.48 201.64" stroke="rgba(255, 247, 173, 1)" stroke-width="4"></path><path d="M1328.51 204.41Q1333.58 205.51 1338.65 206.62 1343.71 207.75 1348.78 208.88 1353.85 210.03 1358.92 211.19 1363.98 212.36 1369.05 213.53 1374.12 214.72 1379.19 215.9 1384.26 217.1 1389.32 218.31 1394.39 219.52 1399.46 220.73 1404.53 221.96 1409.59 223.18 1414.66 224.41 1419.73 225.64 1424.8 226.88 1429.86 228.11 1434.93 229.35 1440 230.59" stroke="rgba(255, 214, 191, 1)" stroke-width="4"></path><path d="M24.59 269.53Q32.28 271.39 39.98 273.25 47.67 275.09 55.36 276.93 63.06 278.73 70.75 280.54" stroke="rgba(255, 247, 173, 1)" stroke-width="4"></path><path d="M95.62 286.22Q103.67 287.99 111.71 289.76 119.76 291.46 127.81 293.16 135.85 294.79 143.9 296.43 151.94 297.97 159.99 299.52 168.04 300.98 176.08 302.44 184.13 303.81 192.18 305.17 200.22 306.44 208.27 307.7 216.31 308.85 224.36 310 232.41 311.04 240.45 312.08 248.5 313 256.55 313.92 264.59 314.71 272.64 315.51 280.68 316.18 288.73 316.84" stroke="rgba(255, 247, 173, 1)" stroke-width="4"></path><path d="M303.59 317.84Q307.41 318.05 311.22 318.27 315.04 318.45 318.86 318.63 322.67 318.78 326.49 318.93" stroke="rgba(255, 169, 249, 1)" stroke-width="4"></path><path d="M347.91 319.45Q355.58 319.49 363.26 319.52 370.93 319.43 378.61 319.34 386.28 319.13 393.96 318.92 401.63 318.58 409.3 318.24 416.98 317.78 424.65 317.32 432.33 316.73 440 316.15 447.68 315.45 455.35 314.75" stroke="rgba(255, 247, 173, 1)" stroke-width="4"></path><path d="M495.12 310.08Q503.22 308.92 511.33 307.76 519.43 306.49 527.53 305.22 535.64 303.85 543.74 302.48 551.84 301.01 559.95 299.54 568.05 297.98 576.15 296.42 584.25 294.77 592.36 293.13 600.46 291.41 608.56 289.7 616.67 287.92 624.77 286.13 632.87 284.3 640.98 282.46 649.08 280.57 657.18 278.69 665.29 276.76 673.39 274.84" stroke="rgba(255, 247, 173, 1)" stroke-width="4"></path><path d="M708.57 266.32Q716.22 264.45 723.87 262.58 731.53 260.72 739.18 258.85 746.83 256.99 754.48 255.14 762.13 253.3 769.79 251.46 777.44 249.65 785.09 247.84" stroke="rgba(255, 247, 173, 1)" stroke-width="4"></path><path d="M804.54 243.34Q809.68 242.18 814.82 241.02 819.95 239.88 825.09 238.74 830.23 237.63 835.37 236.51" stroke="rgba(255, 214, 191, 1)" stroke-width="4"></path><path d="M871.84 229.08Q879.56 227.64 887.29 226.19 895.01 224.83 902.73 223.46 910.46 222.19 918.18 220.92 925.9 219.74 933.62 218.57 941.35 217.5 949.07 216.42" stroke="rgba(255, 169, 249, 1)" stroke-width="4"></path><path d="M983.9 212.38Q991.43 211.69 998.96 210.99 1006.49 210.41 1014.02 209.83 1021.55 209.37 1029.08 208.91 1036.61 208.56 1044.14 208.21 1051.67 207.99 1059.2 207.76 1066.73 207.65 1074.26 207.55 1081.79 207.56 1089.32 207.58 1096.85 207.71 1104.38 207.85" stroke="rgba(255, 214, 191, 1)" stroke-width="4"></path><path d="M1131.87 208.96Q1139.66 209.45 1147.45 209.94 1155.25 210.55 1163.04 211.17 1170.83 211.9 1178.62 212.63 1186.41 213.49 1194.2 214.34 1202 215.31 1209.79 216.27 1217.58 217.35 1225.37 218.42 1233.16 219.6 1240.96 220.78 1248.75 222.06 1256.54 223.34 1264.33 224.71 1272.12 226.08 1279.91 227.54 1287.71 229 1295.5 230.53 1303.29 232.07" stroke="rgba(255, 169, 249, 1)" stroke-width="4"></path><path d="M1329.96 237.66Q1336.49 239.1 1343.01 240.53 1349.54 242 1356.06 243.47 1362.59 244.98 1369.11 246.48" stroke="rgba(255, 169, 249, 1)" stroke-width="4"></path><path d="M1387.53 250.82Q1391.28 251.72 1395.03 252.61 1398.77 253.51 1402.52 254.41 1406.27 255.32 1410.02 256.22 1413.77 257.13 1417.51 258.04 1421.26 258.96 1425.01 259.87 1428.76 260.78 1432.5 261.7 1436.25 262.61 1440 263.53" stroke="rgba(255, 214, 191, 1)" stroke-width="4"></path><path d="M12.8 299.6Q21.14 301.62 29.48 303.65 37.81 305.66 46.15 307.67 54.49 309.65 62.83 311.63 71.16 313.57 79.5 315.51 87.84 317.4 96.18 319.29 104.52 321.12 112.85 322.95 121.19 324.7 129.53 326.46" stroke="rgba(255, 169, 249, 1)" stroke-width="4"></path><path d="M158.48 332.18Q166.53 333.65 174.58 335.12 182.63 336.5 190.69 337.87 198.74 339.14 206.79 340.42 214.84 341.58 222.89 342.74 230.94 343.79 239 344.84 247.05 345.78 255.1 346.71 263.15 347.51 271.2 348.32 279.25 349 287.31 349.68 295.36 350.22 303.41 350.77" stroke="rgba(255, 169, 249, 1)" stroke-width="4"></path><path d="M336.64 352.18Q345.07 352.31 353.5 352.45 361.92 352.43 370.35 352.41 378.78 352.25 387.2 352.08 395.63 351.76 404.06 351.44" stroke="rgba(255, 214, 191, 1)" stroke-width="4"></path><path d="M420.27 350.55Q428.6 349.95 436.93 349.35 445.26 348.61 453.59 347.87 461.92 346.99 470.25 346.11" stroke="rgba(255, 247, 173, 1)" stroke-width="4"></path><path d="M481.05 344.84Q489.28 343.76 497.52 342.69 505.75 341.49 513.99 340.3 522.22 338.99 530.46 337.68 538.69 336.27 546.92 334.85 555.16 333.34 563.39 331.83 571.63 330.22 579.86 328.62 588.1 326.93 596.33 325.24 604.57 323.48 612.8 321.72" stroke="rgba(255, 214, 191, 1)" stroke-width="4"></path><path d="M636.16 316.5Q645.13 314.43 654.09 312.35 663.05 310.23 672.02 308.11 680.98 305.95 689.95 303.79" stroke="rgba(255, 169, 249, 1)" stroke-width="4"></path><path d="M721.32 296.15Q730.36 293.94 739.39 291.74 748.43 289.55 757.47 287.36 766.5 285.19 775.54 283.03" stroke="rgba(255, 247, 173, 1)" stroke-width="4"></path><path d="M796.96 278.02Q804.99 276.19 813.03 274.36 821.06 272.58 829.1 270.81 837.13 269.1 845.16 267.39 853.2 265.74 861.23 264.1 869.27 262.54 877.3 260.98" stroke="rgba(255, 214, 191, 1)" stroke-width="4"></path><path d="M894.86 257.77Q900.93 256.73 906.99 255.68 913.06 254.7 919.13 253.71 925.19 252.78 931.26 251.86" stroke="rgba(255, 169, 249, 1)" stroke-width="4"></path><path d="M968.18 247Q973.35 246.44 978.53 245.87 983.7 245.35 988.87 244.84 994.05 244.38 999.22 243.91" stroke="rgba(255, 169, 249, 1)" stroke-width="4"></path><path d="M1015.19 242.69Q1023.39 242.21 1031.59 241.72 1039.79 241.37 1047.99 241.02 1056.19 240.81 1064.39 240.6 1072.58 240.54 1080.78 240.47 1088.98 240.55 1097.18 240.63 1105.38 240.85 1113.58 241.07 1121.78 241.43 1129.98 241.8" stroke="rgba(255, 247, 173, 1)" stroke-width="4"></path><path d="M1142.23 242.52Q1147.7 242.91 1153.17 243.3 1158.63 243.75 1164.1 244.2 1169.57 244.71 1175.04 245.22" stroke="rgba(255, 169, 249, 1)" stroke-width="4"></path><path d="M1204.38 248.52Q1213.15 249.69 1221.91 250.87 1230.68 252.18 1239.44 253.48 1248.21 254.92 1256.98 256.35 1265.74 257.91 1274.51 259.46 1283.27 261.12 1292.04 262.78" stroke="rgba(255, 214, 191, 1)" stroke-width="4"></path><path d="M1319.58 268.38Q1327.32 270.05 1335.05 271.71 1342.79 273.44 1350.52 275.16 1358.26 276.93 1366 278.7 1373.73 280.51 1381.47 282.32" stroke="rgba(255, 247, 173, 1)" stroke-width="4"></path><path d="M1404.94 287.94Q1406.53 288.32 1408.13 288.71 1409.72 289.09 1411.31 289.48 1412.91 289.87 1414.5 290.25 1416.1 290.64 1417.69 291.03 1419.28 291.42 1420.88 291.8 1422.47 292.19 1424.06 292.58 1425.66 292.97 1427.25 293.36 1428.84 293.75 1430.44 294.13 1432.03 294.52 1433.63 294.91 1435.22 295.3 1436.81 295.69 1438.41 296.08 1440 296.47" stroke="rgba(255, 169, 249, 1)" stroke-width="4"></path><path d="M12.89 332.56Q21.78 334.72 30.67 336.88 39.57 339.02 48.46 341.16 57.35 343.27 66.24 345.37" stroke="rgba(255, 214, 191, 1)" stroke-width="4"></path><path d="M104.71 354.12Q112.96 355.89 121.2 357.67 129.45 359.37 137.69 361.07 145.94 362.69 154.19 364.31 162.43 365.84 170.68 367.37 178.92 368.8 187.17 370.23 195.42 371.55 203.66 372.88 211.91 374.09 220.15 375.31 228.4 376.4 236.65 377.49 244.89 378.46 253.14 379.43 261.38 380.27 269.63 381.11" stroke="rgba(255, 247, 173, 1)" stroke-width="4"></path><path d="M297.73 383.36Q305.46 383.8 313.18 384.25 320.91 384.57 328.64 384.89 336.37 385.08 344.09 385.28 351.82 385.34 359.55 385.41 367.28 385.35 375 385.29 382.73 385.1 390.46 384.92 398.18 384.6 405.91 384.29 413.64 383.85 421.37 383.42 429.09 382.86 436.82 382.3 444.55 381.61 452.28 380.93 460 380.14 467.73 379.34" stroke="rgba(255, 214, 191, 1)" stroke-width="4"></path><path d="M487.21 377Q495.11 375.93 503.01 374.86 510.92 373.68 518.82 372.5 526.72 371.21 534.62 369.93 542.52 368.55 550.42 367.17 558.33 365.7 566.23 364.23 574.13 362.68 582.03 361.12 589.93 359.5 597.84 357.87 605.74 356.17 613.64 354.48 621.54 352.72 629.44 350.97 637.34 349.16 645.25 347.36 653.15 345.51 661.05 343.66" stroke="rgba(255, 247, 173, 1)" stroke-width="4"></path><path d="M685.54 337.8Q693.44 335.88 701.34 333.97 709.25 332.04 717.15 330.11 725.05 328.18 732.95 326.25 740.85 324.33 748.75 322.4 756.66 320.5 764.56 318.59 772.46 316.71 780.36 314.83 788.26 312.99 796.16 311.14 804.07 309.34 811.97 307.54 819.87 305.79 827.77 304.04 835.67 302.35 843.57 300.66 851.48 299.04 859.38 297.42 867.28 295.87 875.18 294.33" stroke="rgba(255, 169, 249, 1)" stroke-width="4"></path><path d="M894.62 290.75Q902.32 289.44 910.02 288.12 917.71 286.9 925.41 285.68 933.11 284.55 940.81 283.43 948.51 282.41 956.2 281.38 963.9 280.47 971.6 279.56 979.3 278.76 986.99 277.96 994.69 277.28 1002.39 276.59" stroke="rgba(255, 214, 191, 1)" stroke-width="4"></path><path d="M1020.2 275.31Q1028.31 274.86 1036.41 274.42 1044.52 274.12 1052.62 273.81 1060.73 273.64 1068.83 273.48 1076.94 273.45 1085.05 273.43 1093.15 273.54 1101.26 273.65 1109.36 273.91 1117.47 274.16 1125.57 274.55 1133.68 274.94 1141.78 275.47 1149.89 276" stroke="rgba(255, 214, 191, 1)" stroke-width="4"></path><path d="M1187.9 279.5Q1195.61 280.41 1203.33 281.33 1211.04 282.35 1218.75 283.36 1226.46 284.49 1234.18 285.61 1241.89 286.84 1249.6 288.06 1257.31 289.37 1265.03 290.69 1272.74 292.1 1280.45 293.5 1288.16 294.99 1295.88 296.47 1303.59 298.03 1311.3 299.59 1319.01 301.22 1326.73 302.85 1334.44 304.53 1342.15 306.22" stroke="rgba(255, 214, 191, 1)" stroke-width="4"></path><path d="M1374.8 313.69Q1378.88 314.65 1382.95 315.62 1387.03 316.58 1391.1 317.55 1395.18 318.53 1399.25 319.51 1403.33 320.49 1407.4 321.47 1411.48 322.46 1415.55 323.45 1419.63 324.44 1423.7 325.43 1427.78 326.43 1431.85 327.42 1435.92 328.42 1440 329.41" stroke="rgba(255, 214, 191, 1)" stroke-width="4"></path><path d="M19.83 367.19Q27 368.93 34.16 370.67 41.33 372.39 48.5 374.11 55.66 375.81 62.83 377.51" stroke="rgba(255, 169, 249, 1)" stroke-width="4"></path><path d="M74.01 380.12Q81.9 381.93 89.78 383.73 97.67 385.49 105.56 387.24 113.44 388.94 121.33 390.63 129.22 392.26 137.1 393.89 144.99 395.44 152.88 397 160.76 398.47 168.65 399.94" stroke="rgba(255, 169, 249, 1)" stroke-width="4"></path><path d="M181.51 402.21Q182.88 402.44 184.25 402.68 185.62 402.91 186.99 403.14 188.36 403.37 189.73 403.6" stroke="rgba(255, 169, 249, 1)" stroke-width="4"></path><path d="M224.26 408.81Q232.54 409.88 240.82 410.95 249.09 411.89 257.37 412.83 265.65 413.64 273.93 414.45" stroke="rgba(255, 247, 173, 1)" stroke-width="4"></path><path d="M303.01 416.63Q311.12 417.05 319.22 417.47 327.33 417.75 335.43 418.03 343.53 418.17 351.64 418.32 359.75 418.32 367.85 418.32" stroke="rgba(255, 247, 173, 1)" stroke-width="4"></path><path d="M396.44 417.65Q404.25 417.28 412.06 416.91 419.87 416.42 427.68 415.93 435.49 415.31 443.3 414.69 451.11 413.96 458.92 413.22 466.73 412.36 474.54 411.5 482.35 410.53 490.16 409.56 497.98 408.48 505.79 407.4 513.6 406.21 521.41 405.03 529.22 403.75 537.03 402.46 544.84 401.08 552.65 399.71 560.46 398.24 568.27 396.78 576.08 395.23 583.89 393.69" stroke="rgba(255, 214, 191, 1)" stroke-width="4"></path><path d="M597.2 390.94Q600.4 390.27 603.6 389.59 606.79 388.9 609.99 388.21 613.19 387.51 616.39 386.82" stroke="rgba(255, 247, 173, 1)" stroke-width="4"></path><path d="M654.65 378.11Q663.22 376.08 671.78 374.05 680.35 371.99 688.91 369.93 697.48 367.84 706.04 365.76 714.61 363.67 723.18 361.58 731.74 359.49 740.31 357.4 748.87 355.32 757.44 353.25" stroke="rgba(255, 169, 249, 1)" stroke-width="4"></path><path d="M787.36 346.13Q795.62 344.22 803.88 342.31 812.14 340.45 820.4 338.6 828.67 336.8 836.93 335.01 845.19 333.28 853.45 331.56 861.71 329.91 869.97 328.27 878.23 326.71 886.49 325.16 894.75 323.7 903.02 322.24 911.28 320.88 919.54 319.53 927.8 318.28 936.06 317.04" stroke="rgba(255, 214, 191, 1)" stroke-width="4"></path><path d="M948.68 315.3Q956.28 314.34 963.87 313.39 971.47 312.54 979.06 311.7 986.66 310.96 994.26 310.23 1001.85 309.61 1009.45 308.99 1017.04 308.48 1024.64 307.98" stroke="rgba(255, 169, 249, 1)" stroke-width="4"></path><path d="M1044.31 307.03Q1052.31 306.8 1060.3 306.56 1068.3 306.46 1076.3 306.36 1084.29 306.4 1092.29 306.43 1100.28 306.61 1108.28 306.78 1116.28 307.09 1124.27 307.39 1132.27 307.84 1140.26 308.28 1148.26 308.85 1156.26 309.42 1164.25 310.13 1172.25 310.83 1180.25 311.66 1188.24 312.48 1196.24 313.43 1204.24 314.38 1212.23 315.45 1220.23 316.51 1228.22 317.69 1236.22 318.87" stroke="rgba(255, 247, 173, 1)" stroke-width="4"></path><path d="M1265.46 323.71Q1273.52 325.18 1281.57 326.65 1289.63 328.21 1297.68 329.77 1305.74 331.41 1313.8 333.05 1321.85 334.76 1329.91 336.48 1337.97 338.25 1346.02 340.03 1354.08 341.86 1362.13 343.69 1370.19 345.57 1378.25 347.45 1386.3 349.36 1394.36 351.27 1402.41 353.22 1410.47 355.16" stroke="rgba(255, 214, 191, 1)" stroke-width="4"></path><path d="M40.73 405.19Q48.72 407.1 56.71 409.01 64.71 410.89 72.7 412.76 80.69 414.59 88.68 416.43 96.67 418.21 104.67 419.99 112.66 421.71 120.65 423.43 128.64 425.08 136.63 426.74 144.63 428.31 152.62 429.89 160.61 431.38 168.6 432.87 176.59 434.28 184.59 435.68 192.58 436.98 200.57 438.28" stroke="rgba(255, 169, 249, 1)" stroke-width="4"></path><path d="M230.17 442.55Q237.97 443.51 245.76 444.48 253.56 445.33 261.36 446.19 269.16 446.92 276.95 447.66 284.75 448.27 292.55 448.89 300.34 449.38 308.14 449.87 315.94 450.23 323.73 450.59 331.53 450.83 339.33 451.07 347.13 451.17 354.92 451.28 362.72 451.26 370.52 451.24 378.31 451.08 386.11 450.93 393.91 450.65 401.71 450.37 409.5 449.96 417.3 449.55" stroke="rgba(255, 214, 191, 1)" stroke-width="4"></path><path d="M431.45 448.59Q439.19 447.95 446.92 447.31 454.66 446.56 462.4 445.8 470.13 444.92 477.87 444.05 485.61 443.06 493.34 442.08 501.08 440.99 508.82 439.9 516.55 438.7 524.29 437.51 532.03 436.22 539.76 434.93 547.5 433.55 555.24 432.17 562.97 430.71 570.71 429.25 578.45 427.71 586.18 426.17 593.92 424.55 601.66 422.94 609.39 421.27 617.13 419.59" stroke="rgba(255, 214, 191, 1)" stroke-width="4"></path><path d="M634.61 415.68Q642.38 413.89 650.16 412.1 657.93 410.27 665.71 408.44 673.48 406.58 681.25 404.72 689.03 402.83 696.8 400.95 704.58 399.06 712.35 397.16 720.13 395.26 727.9 393.36 735.67 391.47 743.45 389.57 751.22 387.69 759 385.81 766.77 383.95 774.54 382.09 782.32 380.26 790.09 378.43 797.87 376.64 805.64 374.85 813.42 373.11 821.19 371.36" stroke="rgba(255, 247, 173, 1)" stroke-width="4"></path><path d="M852.34 364.72Q860.19 363.15 868.05 361.58 875.9 360.09 883.75 358.6 891.61 357.19 899.46 355.79 907.31 354.48 915.17 353.16 923.02 351.95 930.87 350.74 938.73 349.63 946.58 348.52 954.43 347.52 962.29 346.52 970.14 345.63 977.99 344.75 985.85 343.98 993.7 343.22" stroke="rgba(255, 169, 249, 1)" stroke-width="4"></path><path d="M1029.4 340.65Q1037.12 340.3 1044.84 339.95 1052.56 339.73 1060.28 339.5 1068 339.4 1075.72 339.3 1083.44 339.33 1091.16 339.36 1098.88 339.52 1106.61 339.67 1114.33 339.95 1122.05 340.23 1129.77 340.64 1137.49 341.05 1145.21 341.58 1152.93 342.11 1160.65 342.76 1168.37 343.41" stroke="rgba(255, 169, 249, 1)" stroke-width="4"></path><path d="M1203.29 347.2Q1211.66 348.32 1220.04 349.43 1228.41 350.66 1236.79 351.9 1245.16 353.25 1253.54 354.6 1261.91 356.05 1270.29 357.51 1278.66 359.07 1287.04 360.63" stroke="rgba(255, 169, 249, 1)" stroke-width="4"></path><path d="M1316.44 366.54Q1321.59 367.64 1326.74 368.73 1331.88 369.85 1337.03 370.97 1342.18 372.12 1347.33 373.26 1352.48 374.43 1357.63 375.6 1362.78 376.78 1367.92 377.97 1373.07 379.18 1378.22 380.38 1383.37 381.6 1388.52 382.82 1393.66 384.05 1398.81 385.28 1403.96 386.53 1409.11 387.77 1414.26 389.02 1419.41 390.27 1424.56 391.52 1429.7 392.78 1434.85 394.04 1440 395.29" stroke="rgba(255, 214, 191, 1)" stroke-width="4"></path><path d="M14.95 431.89Q23.41 433.94 31.86 436 40.32 438.03 48.78 440.06 57.24 442.07 65.69 444.07 74.15 446.03 82.61 447.99" stroke="rgba(255, 247, 173, 1)" stroke-width="4"></path><path d="M114.94 455.16Q124.05 457.06 133.16 458.97 142.27 460.78 151.38 462.59 160.48 464.29 169.59 465.99 178.7 467.58 187.81 469.16" stroke="rgba(255, 247, 173, 1)" stroke-width="4"></path><path d="M202.34 471.5Q208.98 472.49 215.61 473.48 222.25 474.4 228.88 475.32 235.51 476.16 242.15 476.99" stroke="rgba(255, 214, 191, 1)" stroke-width="4"></path><path d="M268.09 479.79Q271.16 480.08 274.22 480.36 277.29 480.62 280.36 480.89 283.42 481.13 286.49 481.38" stroke="rgba(255, 169, 249, 1)" stroke-width="4"></path><path d="M302.97 482.51Q310.62 482.91 318.27 483.31 325.92 483.59 333.57 483.86 341.22 484.02 348.87 484.17 356.52 484.2 364.17 484.23 371.82 484.13 379.47 484.03 387.12 483.81 394.77 483.59 402.42 483.25 410.07 482.9 417.72 482.44 425.37 481.97 433.02 481.39 440.67 480.8" stroke="rgba(255, 214, 191, 1)" stroke-width="4"></path><path d="M478.15 476.96Q486.2 475.93 494.25 474.9 502.3 473.76 510.34 472.61 518.39 471.36 526.44 470.11 534.49 468.75 542.54 467.39 550.59 465.94 558.63 464.49 566.68 462.94 574.73 461.4 582.78 459.78 590.83 458.15 598.88 456.46 606.92 454.76 614.97 452.99 623.02 451.23 631.07 449.41 639.12 447.59 647.17 445.72 655.21 443.86 663.26 441.95 671.31 440.04" stroke="rgba(255, 169, 249, 1)" stroke-width="4"></path><path d="M703.68 432.22Q706.42 431.55 709.15 430.89 711.88 430.22 714.62 429.55 717.36 428.88 720.09 428.21" stroke="rgba(255, 247, 173, 1)" stroke-width="4"></path><path d="M735.63 424.42Q743.36 422.54 751.1 420.66 758.83 418.8 766.57 416.93 774.3 415.1 782.04 413.26 789.77 411.46 797.5 409.66 805.24 407.9 812.97 406.14 820.71 404.43 828.44 402.72 836.18 401.06 843.91 399.41" stroke="rgba(255, 169, 249, 1)" stroke-width="4"></path><path d="M867.09 394.71Q875.64 393.09 884.18 391.46 892.73 389.94 901.27 388.42 909.82 387.01 918.36 385.59 926.91 384.3 935.46 383.01 944 381.84 952.55 380.67 961.09 379.64 969.64 378.6" stroke="rgba(255, 247, 173, 1)" stroke-width="4"></path><path d="M985.07 376.97Q992.67 376.28 1000.26 375.59 1007.86 375.02 1015.45 374.44 1023.05 373.99 1030.65 373.53 1038.24 373.19 1045.84 372.86 1053.43 372.64 1061.03 372.43 1068.63 372.33 1076.22 372.24 1083.82 372.27 1091.42 372.3 1099.01 372.46 1106.61 372.61 1114.2 372.89 1121.8 373.16" stroke="rgba(255, 214, 191, 1)" stroke-width="4"></path><path d="M1146.81 374.6Q1154.36 375.19 1161.91 375.77 1169.46 376.48 1177.01 377.18 1184.56 377.99 1192.11 378.8 1199.66 379.72 1207.21 380.64 1214.76 381.67 1222.31 382.69 1229.86 383.81 1237.41 384.93 1244.96 386.15 1252.51 387.36 1260.06 388.67 1267.61 389.97 1275.16 391.36 1282.71 392.75 1290.26 394.21 1297.81 395.68" stroke="rgba(255, 247, 173, 1)" stroke-width="4"></path><path d="M1332.97 403.02Q1338.92 404.34 1344.86 405.65 1350.81 406.99 1356.75 408.34 1362.7 409.71 1368.65 411.08 1374.59 412.47 1380.54 413.87 1386.48 415.28 1392.43 416.7 1398.38 418.12 1404.32 419.55 1410.27 420.99 1416.22 422.43 1422.16 423.88 1428.11 425.33 1434.05 426.78 1440 428.24" stroke="rgba(255, 169, 249, 1)" stroke-width="4"></path><path d="M5.53 462.53Q12.21 464.16 18.9 465.79 25.58 467.41 32.27 469.04 38.95 470.65 45.64 472.25" stroke="rgba(255, 247, 173, 1)" stroke-width="4"></path><path d="M66.2 477.13Q73.83 478.9 81.47 480.67 89.1 482.39 96.74 484.12 104.37 485.79 112 487.47 119.64 489.08 127.27 490.7 134.91 492.25 142.54 493.8 150.18 495.28 157.81 496.76 165.44 498.16 173.08 499.56 180.71 500.88 188.35 502.19 195.98 503.41 203.61 504.64 211.25 505.76 218.88 506.89 226.52 507.92 234.15 508.94" stroke="rgba(255, 214, 191, 1)" stroke-width="4"></path><path d="M264.95 512.43Q272.49 513.12 280.03 513.8 287.57 514.37 295.11 514.95 302.65 515.4 310.19 515.86 317.74 516.2 325.28 516.53 332.82 516.75 340.36 516.97 347.9 517.07 355.44 517.17" stroke="rgba(255, 169, 249, 1)" stroke-width="4"></path><path d="M392.8 516.6Q395.47 516.5 398.14 516.4 400.81 516.29 403.48 516.17 406.15 516.04 408.82 515.91" stroke="rgba(255, 247, 173, 1)" stroke-width="4"></path><path d="M436.03 514.12Q443.62 513.46 451.2 512.8 458.79 512.03 466.37 511.25 473.96 510.37 481.54 509.48 489.13 508.49 496.72 507.5 504.3 506.41 511.89 505.32 519.47 504.13 527.06 502.95 534.64 501.67 542.23 500.39 549.82 499.02 557.4 497.66 564.99 496.21 572.57 494.77 580.16 493.25 587.75 491.73 595.33 490.14 602.92 488.56 610.5 486.91 618.09 485.27 625.67 483.57 633.26 481.87" stroke="rgba(255, 214, 191, 1)" stroke-width="4"></path><path d="M644.74 479.24Q653.93 477.08 663.13 474.93 672.33 472.73 681.52 470.53 690.71 468.31 699.91 466.08" stroke="rgba(255, 247, 173, 1)" stroke-width="4"></path><path d="M739.87 456.33Q741.22 456 742.56 455.67 743.91 455.34 745.26 455.02 746.6 454.69 747.95 454.36" stroke="rgba(255, 169, 249, 1)" stroke-width="4"></path><path d="M769.21 449.24Q772.63 448.43 776.06 447.62 779.48 446.81 782.9 446 786.33 445.2 789.75 444.4" stroke="rgba(255, 247, 173, 1)" stroke-width="4"></path><path d="M829.22 435.49Q838.07 433.61 846.91 431.73 855.76 429.93 864.6 428.14 873.45 426.45 882.3 424.75 891.14 423.17 899.99 421.58 908.83 420.11 917.68 418.64" stroke="rgba(255, 214, 191, 1)" stroke-width="4"></path><path d="M952.32 413.64Q960.37 412.66 968.41 411.68 976.46 410.83 984.5 409.97 992.55 409.24 1000.59 408.5 1008.63 407.9 1016.68 407.3 1024.72 406.83 1032.77 406.36 1040.82 406.03 1048.86 405.69 1056.91 405.49 1064.95 405.3" stroke="rgba(255, 247, 173, 1)" stroke-width="4"></path><path d="M1095.83 405.31Q1103.69 405.51 1111.55 405.71 1119.4 406.03 1127.26 406.36 1135.12 406.82 1142.98 407.28 1150.84 407.86 1158.69 408.45 1166.55 409.15 1174.41 409.86 1182.27 410.69 1190.13 411.52 1197.98 412.46 1205.84 413.41 1213.7 414.47 1221.56 415.52 1229.41 416.69 1237.27 417.85 1245.13 419.12 1252.99 420.39 1260.85 421.75 1268.7 423.11 1276.56 424.56 1284.42 426.01" stroke="rgba(255, 169, 249, 1)" stroke-width="4"></path><path d="M1315.46 432.22Q1323.24 433.88 1331.03 435.54 1338.81 437.26 1346.6 438.98 1354.38 440.75 1362.16 442.52 1369.95 444.33 1377.73 446.15 1385.51 448 1393.3 449.84 1401.08 451.72 1408.87 453.59 1416.65 455.48 1424.43 457.38 1432.22 459.28 1440 461.18" stroke="rgba(255, 169, 249, 1)" stroke-width="4"></path><path d="M29.51 501.31Q30.6 501.57 31.69 501.84 32.78 502.1 33.87 502.36 34.96 502.63 36.05 502.89" stroke="rgba(255, 214, 191, 1)" stroke-width="4"></path><path d="M75.77 512.3Q77.52 512.7 79.26 513.1 81.01 513.5 82.75 513.9 84.5 514.3 86.24 514.7" stroke="rgba(255, 169, 249, 1)" stroke-width="4"></path><path d="M108.05 519.55Q115.83 521.22 123.61 522.88 131.39 524.48 139.17 526.07 146.96 527.6 154.74 529.12 162.52 530.56 170.3 532 178.08 533.36 185.86 534.72 193.64 535.98 201.42 537.24 209.2 538.4 216.99 539.56 224.77 540.62 232.55 541.68 240.33 542.63 248.11 543.58" stroke="rgba(255, 247, 173, 1)" stroke-width="4"></path><path d="M263.29 545.21Q271.03 545.92 278.77 546.64 286.51 547.23 294.25 547.83 302 548.3 309.74 548.78 317.48 549.13 325.22 549.47 332.96 549.7 340.7 549.92 348.44 550.01 356.18 550.11 363.92 550.08 371.66 550.05 379.4 549.89 387.15 549.73 394.89 549.44 402.63 549.15 410.37 548.74 418.11 548.33" stroke="rgba(255, 169, 249, 1)" stroke-width="4"></path><path d="M444.63 546.34Q453.1 545.53 461.57 544.71 470.04 543.75 478.51 542.8 486.98 541.71 495.45 540.62 503.92 539.4 512.39 538.19 520.86 536.85 529.33 535.52 537.8 534.07 546.27 532.62" stroke="rgba(255, 169, 249, 1)" stroke-width="4"></path><path d="M565.34 529.1Q568.06 528.58 570.77 528.06 573.49 527.53 576.21 526.99 578.92 526.45 581.64 525.91" stroke="rgba(255, 169, 249, 1)" stroke-width="4"></path><path d="M597.41 522.66Q605.32 520.97 613.23 519.27 621.14 517.52 629.05 515.76 636.96 513.96 644.87 512.15 652.78 510.3 660.69 508.45 668.6 506.57 676.51 504.68 684.41 502.77 692.32 500.86 700.23 498.94 708.14 497.01 716.05 495.08 723.96 493.15 731.87 491.22 739.78 489.29 747.69 487.37 755.6 485.45 763.51 483.56 771.42 481.66" stroke="rgba(255, 214, 191, 1)" stroke-width="4"></path><path d="M804.57 473.92Q812.39 472.16 820.2 470.41 828.02 468.7 835.84 467 843.65 465.37 851.47 463.73 859.28 462.16 867.1 460.59 874.92 459.1 882.73 457.61 890.55 456.21 898.37 454.8 906.18 453.49 914 452.18" stroke="rgba(255, 169, 249, 1)" stroke-width="4"></path><path d="M927.31 450.09Q935.03 448.98 942.75 447.86 950.47 446.85 958.19 445.84 965.92 444.94 973.64 444.04 981.36 443.25 989.08 442.47 996.8 441.8 1004.52 441.13 1012.24 440.58 1019.96 440.03 1027.69 439.6 1035.41 439.17 1043.13 438.87 1050.85 438.57" stroke="rgba(255, 247, 173, 1)" stroke-width="4"></path><path d="M1061.95 438.29Q1070.28 438.2 1078.61 438.12 1086.95 438.18 1095.28 438.24 1103.61 438.45 1111.94 438.66 1120.28 439.02 1128.61 439.37 1136.94 439.87 1145.27 440.37 1153.61 441.02 1161.94 441.66" stroke="rgba(255, 247, 173, 1)" stroke-width="4"></path><path d="M1190.63 444.52Q1198.75 445.5 1206.87 446.48 1214.98 447.58 1223.1 448.68 1231.22 449.9 1239.34 451.12 1247.46 452.44 1255.58 453.76 1263.69 455.19 1271.81 456.61 1279.93 458.13 1288.05 459.65 1296.17 461.26 1304.29 462.86 1312.4 464.54 1320.52 466.23 1328.64 467.98 1336.76 469.74" stroke="rgba(255, 247, 173, 1)" stroke-width="4"></path><path d="M1369.56 477.18Q1379.12 479.43 1388.67 481.68 1398.23 483.98 1407.79 486.27 1417.34 488.6 1426.9 490.92" stroke="rgba(255, 169, 249, 1)" stroke-width="4"></path><path d="M26.48 533.51Q33.98 535.33 41.48 537.14 48.99 538.93 56.49 540.72 63.99 542.48 71.49 544.25 78.99 545.97 86.49 547.7 94 549.38 101.5 551.06 109 552.69 116.5 554.32 124 555.89 131.51 557.46 139.01 558.96 146.51 560.47" stroke="rgba(255, 247, 173, 1)" stroke-width="4"></path><path d="M181.22 566.87Q189.34 568.21 197.46 569.56 205.58 570.79 213.71 572.03 221.83 573.16 229.95 574.28 238.07 575.29 246.19 576.29 254.31 577.18 262.43 578.06 270.56 578.82 278.68 579.57 286.8 580.19 294.92 580.82" stroke="rgba(255, 214, 191, 1)" stroke-width="4"></path><path d="M331.59 582.63Q337.7 582.77 343.8 582.92 349.91 582.98 356.02 583.05 362.12 583.04 368.23 583.02" stroke="rgba(255, 169, 249, 1)" stroke-width="4"></path><path d="M404.74 582Q410.14 581.71 415.54 581.42 420.94 581.08 426.34 580.73 431.74 580.32 437.14 579.92" stroke="rgba(255, 169, 249, 1)" stroke-width="4"></path><path d="M469.49 576.79Q478.29 575.73 487.09 574.67 495.89 573.47 504.69 572.26 513.49 570.93 522.29 569.6 531.09 568.14 539.89 566.68" stroke="rgba(255, 169, 249, 1)" stroke-width="4"></path><path d="M571.45 560.87Q579.18 559.33 586.9 557.78 594.63 556.17 602.35 554.56 610.08 552.88 617.81 551.21 625.53 549.48 633.26 547.75 640.98 545.98 648.71 544.2" stroke="rgba(255, 247, 173, 1)" stroke-width="4"></path><path d="M660.77 541.37Q668.88 539.44 677 537.5 685.11 535.55 693.23 533.59 701.34 531.61 709.45 529.63 717.57 527.65 725.68 525.67 733.8 523.69 741.91 521.71 750.02 519.75 758.14 517.78 766.25 515.84 774.37 513.9 782.48 511.99 790.6 510.08 798.71 508.21 806.82 506.35 814.94 504.53 823.05 502.72 831.17 500.96 839.28 499.21" stroke="rgba(255, 247, 173, 1)" stroke-width="4"></path><path d="M869.47 493.07Q877.05 491.64 884.64 490.2 892.22 488.85 899.81 487.49 907.39 486.23 914.98 484.96 922.56 483.78 930.15 482.61 937.73 481.53 945.32 480.45 952.9 479.48 960.48 478.5 968.07 477.63 975.65 476.76 983.24 476 990.82 475.24 998.41 474.6 1005.99 473.95 1013.58 473.42 1021.16 472.89 1028.75 472.48 1036.33 472.07" stroke="rgba(255, 247, 173, 1)" stroke-width="4"></path><path d="M1072.09 471.09Q1079.86 471.09 1087.63 471.09 1095.4 471.22 1103.17 471.34 1110.94 471.6 1118.71 471.86 1126.48 472.24 1134.25 472.62 1142.02 473.13 1149.79 473.64 1157.56 474.27 1165.33 474.9 1173.1 475.65 1180.87 476.4 1188.64 477.26 1196.41 478.13 1204.18 479.11 1211.95 480.09 1219.72 481.17 1227.49 482.26" stroke="rgba(255, 247, 173, 1)" stroke-width="4"></path><path d="M1255.29 486.66Q1260.17 487.5 1265.04 488.34 1269.92 489.22 1274.8 490.1 1279.67 491.01 1284.55 491.92" stroke="rgba(255, 247, 173, 1)" stroke-width="4"></path><path d="M1318.17 498.67Q1323.25 499.76 1328.32 500.84 1333.4 501.95 1338.47 503.06 1343.55 504.19 1348.63 505.32 1353.7 506.47 1358.78 507.63 1363.86 508.8 1368.93 509.97 1374.01 511.16 1379.09 512.35 1384.16 513.55 1389.24 514.76 1394.31 515.97 1399.39 517.19 1404.47 518.41 1409.54 519.64 1414.62 520.87 1419.69 522.1 1424.77 523.34 1429.85 524.58 1434.92 525.82 1440 527.06" stroke="rgba(255, 214, 191, 1)" stroke-width="4"></path></g><defs><clipPath id="SvgjsClipPath1211"><rect width="1440" height="560" x="0" y="0"></rect></clipPath></defs></svg>